<?xml version="1.0" encoding="UTF-8" standalone="no"?>
<!DOCTYPE svg PUBLIC "-//W3C//DTD SVG 1.1//EN" "http://www.w3.org/Graphics/SVG/1.1/DTD/svg11.dtd">
<svg width="100%" height="100%" viewBox="0 0 1905 1459" version="1.1" xmlns="http://www.w3.org/2000/svg" xmlns:xlink="http://www.w3.org/1999/xlink" xml:space="preserve" xmlns:serif="http://www.serif.com/" style="fill-rule:evenodd;clip-rule:evenodd;stroke-linejoin:round;stroke-miterlimit:2;">
    <g transform="matrix(1,0,0,1,-447.629,-184.032)">
        <circle cx="1400" cy="916.283" r="712.753" style="fill:rgb(183,215,242);"/>
        <ellipse cx="1400" cy="1557.1" rx="952.371" ry="85.54" style="fill:rgb(149,191,216);"/>
        <path d="M1078.23,327.273C1077.59,327.273 1076.93,327.207 1076.28,327.085C1075.65,326.952 1075.02,326.764 1074.42,326.51C1073.83,326.266 1073.25,325.957 1072.71,325.592C1072.16,325.237 1071.65,324.817 1071.19,324.364C1070.73,323.899 1070.32,323.39 1069.95,322.849C1069.6,322.306 1069.29,321.731 1069.04,321.123C1068.79,320.526 1068.59,319.895 1068.47,319.265C1068.34,318.623 1068.27,317.97 1068.27,317.318C1068.27,316.676 1068.34,316.013 1068.47,315.371C1068.59,314.741 1068.79,314.11 1069.04,313.513C1069.29,312.916 1069.6,312.329 1069.95,311.798C1070.32,311.245 1070.73,310.736 1071.19,310.283C1071.65,309.818 1072.16,309.409 1072.71,309.044C1073.25,308.679 1073.83,308.38 1074.42,308.126C1075.02,307.882 1075.65,307.684 1076.28,307.562C1077.58,307.296 1078.89,307.296 1080.18,307.562C1080.82,307.684 1081.44,307.882 1082.03,308.126C1082.64,308.38 1083.22,308.679 1083.76,309.044C1084.3,309.409 1084.81,309.818 1085.28,310.283C1085.73,310.736 1086.15,311.245 1086.51,311.798C1086.87,312.329 1087.18,312.916 1087.42,313.513C1087.67,314.11 1087.86,314.741 1088,315.371C1088.12,316.013 1088.18,316.676 1088.18,317.318C1088.18,317.97 1088.12,318.623 1088,319.265C1087.86,319.895 1087.67,320.526 1087.42,321.123C1087.18,321.731 1086.87,322.306 1086.51,322.849C1086.15,323.39 1085.73,323.899 1085.28,324.364C1084.81,324.817 1084.3,325.237 1083.76,325.592C1083.22,325.957 1082.64,326.266 1082.03,326.51C1081.44,326.764 1080.82,326.952 1080.18,327.085C1079.53,327.207 1078.88,327.273 1078.23,327.273Z" style="fill:rgb(154,198,228);fill-rule:nonzero;"/>
        <path d="M1068.27,317.318C1068.27,311.82 1072.73,307.363 1078.23,307.363C1083.73,307.363 1088.18,311.82 1088.18,317.318C1088.18,322.815 1083.73,327.273 1078.23,327.273C1072.73,327.273 1068.27,322.815 1068.27,317.318Z" style="fill:rgb(154,198,228);fill-rule:nonzero;"/>
        <path d="M1770.55,317.318C1770.55,311.82 1775.01,307.363 1780.51,307.363C1786,307.363 1790.46,311.82 1790.46,317.318C1790.46,322.815 1786,327.273 1780.51,327.273C1775.01,327.273 1770.55,322.815 1770.55,317.318ZM1729.25,317.318C1729.25,311.82 1733.7,307.363 1739.2,307.363C1744.7,307.363 1749.16,311.82 1749.16,317.318C1749.16,322.815 1744.7,327.273 1739.2,327.273C1733.7,327.273 1729.25,322.815 1729.25,317.318ZM1687.93,317.318C1687.93,311.82 1692.39,307.363 1697.89,307.363C1703.39,307.363 1707.84,311.82 1707.84,317.318C1707.84,322.815 1703.39,327.273 1697.89,327.273C1692.39,327.273 1687.93,322.815 1687.93,317.318ZM1646.62,317.318C1646.62,311.82 1651.08,307.363 1656.58,307.363C1662.07,307.363 1666.53,311.82 1666.53,317.318C1666.53,322.815 1662.07,327.273 1656.58,327.273C1651.08,327.273 1646.62,322.815 1646.62,317.318ZM1605.31,317.318C1605.31,311.82 1609.77,307.363 1615.26,307.363C1620.76,307.363 1625.22,311.82 1625.22,317.318C1625.22,322.815 1620.76,327.273 1615.26,327.273C1609.77,327.273 1605.31,322.815 1605.31,317.318ZM1564,317.318C1564,311.82 1568.46,307.363 1573.96,307.363C1579.46,307.363 1583.91,311.82 1583.91,317.318C1583.91,322.815 1579.46,327.273 1573.96,327.273C1568.46,327.273 1564,322.815 1564,317.318ZM1522.69,317.318C1522.69,311.82 1527.15,307.363 1532.65,307.363C1538.14,307.363 1542.6,311.82 1542.6,317.318C1542.6,322.815 1538.14,327.273 1532.65,327.273C1527.15,327.273 1522.69,322.815 1522.69,317.318ZM1481.38,317.318C1481.38,311.82 1485.84,307.363 1491.33,307.363C1496.83,307.363 1501.29,311.82 1501.29,317.318C1501.29,322.815 1496.83,327.273 1491.33,327.273C1485.84,327.273 1481.38,322.815 1481.38,317.318ZM1440.07,317.318C1440.07,311.82 1444.53,307.363 1450.03,307.363C1455.52,307.363 1459.98,311.82 1459.98,317.318C1459.98,322.815 1455.52,327.273 1450.03,327.273C1444.53,327.273 1440.07,322.815 1440.07,317.318ZM1398.76,317.318C1398.76,311.82 1403.22,307.363 1408.72,307.363C1414.21,307.363 1418.67,311.82 1418.67,317.318C1418.67,322.815 1414.21,327.273 1408.72,327.273C1403.22,327.273 1398.76,322.815 1398.76,317.318ZM1357.45,317.318C1357.45,311.82 1361.9,307.363 1367.4,307.363C1372.9,307.363 1377.36,311.82 1377.36,317.318C1377.36,322.815 1372.9,327.273 1367.4,327.273C1361.9,327.273 1357.45,322.815 1357.45,317.318ZM1316.14,317.318C1316.14,311.82 1320.59,307.363 1326.1,307.363C1331.6,307.363 1336.04,311.82 1336.04,317.318C1336.04,322.815 1331.6,327.273 1326.1,327.273C1320.59,327.273 1316.14,322.815 1316.14,317.318ZM1274.83,317.318C1274.83,311.82 1279.29,307.363 1284.79,307.363C1290.28,307.363 1294.74,311.82 1294.74,317.318C1294.74,322.815 1290.28,327.273 1284.79,327.273C1279.29,327.273 1274.83,322.815 1274.83,317.318ZM1233.52,317.318C1233.52,311.82 1237.98,307.363 1243.47,307.363C1248.97,307.363 1253.43,311.82 1253.43,317.318C1253.43,322.815 1248.97,327.273 1243.47,327.273C1237.98,327.273 1233.52,322.815 1233.52,317.318ZM1192.2,317.318C1192.2,311.82 1196.66,307.363 1202.16,307.363C1207.66,307.363 1212.12,311.82 1212.12,317.318C1212.12,322.815 1207.66,327.273 1202.16,327.273C1196.66,327.273 1192.2,322.815 1192.2,317.318ZM1150.9,317.318C1150.9,311.82 1155.36,307.363 1160.86,307.363C1166.35,307.363 1170.81,311.82 1170.81,317.318C1170.81,322.815 1166.35,327.273 1160.86,327.273C1155.36,327.273 1150.9,322.815 1150.9,317.318ZM1109.59,317.318C1109.59,311.82 1114.05,307.363 1119.54,307.363C1125.04,307.363 1129.5,311.82 1129.5,317.318C1129.5,322.815 1125.04,327.273 1119.54,327.273C1114.05,327.273 1109.59,322.815 1109.59,317.318Z" style="fill:rgb(154,198,228);fill-rule:nonzero;"/>
        <path d="M1821.82,327.273C1821.17,327.273 1820.51,327.207 1819.87,327.074C1819.24,326.952 1818.61,326.764 1818.02,326.51C1817.4,326.266 1816.83,325.957 1816.29,325.592C1815.75,325.237 1815.24,324.817 1814.79,324.353C1814.32,323.899 1813.9,323.39 1813.55,322.849C1813.18,322.306 1812.88,321.731 1812.63,321.123C1812.37,320.526 1812.18,319.895 1812.06,319.265C1811.93,318.623 1811.86,317.97 1811.86,317.318C1811.86,316.665 1811.93,316.013 1812.06,315.371C1812.18,314.741 1812.37,314.11 1812.63,313.513C1812.88,312.916 1813.18,312.329 1813.55,311.787C1813.9,311.245 1814.32,310.736 1814.79,310.283C1815.24,309.818 1815.75,309.409 1816.29,309.044C1816.83,308.679 1817.4,308.38 1818.02,308.126C1818.61,307.882 1819.24,307.684 1819.87,307.562C1821.16,307.296 1822.48,307.296 1823.77,307.562C1824.4,307.684 1825.03,307.882 1825.62,308.126C1826.23,308.38 1826.81,308.679 1827.35,309.044C1827.89,309.409 1828.4,309.818 1828.87,310.283C1829.32,310.736 1829.74,311.245 1830.09,311.787C1830.46,312.329 1830.77,312.916 1831.01,313.513C1831.27,314.11 1831.45,314.741 1831.58,315.371C1831.71,316.013 1831.77,316.665 1831.77,317.318C1831.77,317.97 1831.71,318.623 1831.58,319.265C1831.45,319.895 1831.27,320.526 1831.01,321.123C1830.77,321.731 1830.46,322.306 1830.09,322.849C1829.74,323.39 1829.32,323.899 1828.87,324.353C1828.4,324.817 1827.89,325.237 1827.35,325.592C1826.81,325.957 1826.23,326.266 1825.62,326.51C1825.03,326.764 1824.4,326.952 1823.77,327.074C1823.12,327.207 1822.47,327.273 1821.82,327.273Z" style="fill:rgb(154,198,228);fill-rule:nonzero;"/>
        <path d="M1811.86,317.318C1811.86,311.82 1816.32,307.363 1821.82,307.363C1827.32,307.363 1831.77,311.82 1831.77,317.318C1831.77,322.815 1827.32,327.273 1821.82,327.273C1816.32,327.273 1811.86,322.815 1811.86,317.318Z" style="fill:rgb(154,198,228);fill-rule:nonzero;"/>
        <path d="M1811.86,384.791C1811.86,379.294 1816.32,374.836 1821.82,374.836C1827.32,374.836 1831.77,379.294 1831.77,384.791C1831.77,390.289 1827.32,394.747 1821.82,394.747C1816.32,394.747 1811.86,390.289 1811.86,384.791ZM1811.86,351.055C1811.86,345.557 1816.32,341.1 1821.82,341.1C1827.32,341.1 1831.77,345.557 1831.77,351.055C1831.77,356.552 1827.32,361.01 1821.82,361.01C1816.32,361.01 1811.86,356.552 1811.86,351.055Z" style="fill:rgb(154,198,228);fill-rule:nonzero;"/>
        <path d="M1821.82,428.483C1821.17,428.483 1820.51,428.417 1819.87,428.284C1819.24,428.162 1818.61,427.974 1818.02,427.72C1817.4,427.477 1816.83,427.167 1816.29,426.802C1815.75,426.448 1815.24,426.027 1814.79,425.563C1814.32,425.109 1813.9,424.6 1813.55,424.059C1813.18,423.516 1812.88,422.941 1812.63,422.333C1812.37,421.736 1812.18,421.105 1812.06,420.475C1811.93,419.833 1811.86,419.181 1811.86,418.528C1811.86,415.907 1812.93,413.34 1814.79,411.493C1815.24,411.028 1815.75,410.608 1816.29,410.254C1816.83,409.889 1817.4,409.579 1818.02,409.336C1818.61,409.082 1819.24,408.894 1819.87,408.772C1821.16,408.507 1822.48,408.507 1823.77,408.772C1824.4,408.894 1825.03,409.082 1825.62,409.336C1826.23,409.579 1826.81,409.889 1827.35,410.254C1827.89,410.608 1828.4,411.028 1828.87,411.493C1830.71,413.34 1831.77,415.907 1831.77,418.528C1831.77,419.181 1831.71,419.833 1831.58,420.475C1831.45,421.105 1831.27,421.736 1831.01,422.333C1830.77,422.941 1830.46,423.516 1830.09,424.059C1829.74,424.6 1829.32,425.109 1828.87,425.563C1828.4,426.027 1827.89,426.448 1827.35,426.802C1826.81,427.167 1826.23,427.477 1825.62,427.72C1825.03,427.974 1824.4,428.162 1823.77,428.284C1823.12,428.417 1822.47,428.483 1821.82,428.483Z" style="fill:rgb(154,198,228);fill-rule:nonzero;"/>
        <path d="M1476.82,417.888L1226.6,417.888C1207.22,417.888 1191.52,402.18 1191.52,382.804L1191.52,251.834C1191.52,232.458 1207.22,216.75 1226.6,216.75L1476.82,216.75C1496.2,216.75 1511.9,232.458 1511.9,251.834L1511.9,382.804C1511.9,402.18 1496.2,417.888 1476.82,417.888Z" style="fill:rgb(228,245,253);fill-rule:nonzero;"/>
        <path d="M1476.82,216.75L1226.6,216.75C1207.22,216.75 1191.52,232.458 1191.52,251.834L1191.52,273.224L1511.9,273.224L1511.9,251.834C1511.9,232.458 1496.2,216.75 1476.82,216.75Z" style="fill:white;fill-rule:nonzero;"/>
        <path d="M1492.95,356.764L1459.17,356.764C1456.79,356.764 1454.86,358.696 1454.86,361.079L1454.86,394.859C1454.86,397.342 1457.99,398.431 1459.53,396.484L1467.13,386.879L1481.38,401.132C1482.89,402.641 1485.34,402.641 1486.84,401.132L1499.22,388.752C1500.73,387.244 1500.73,384.799 1499.22,383.29L1484.97,369.037L1494.58,361.437C1496.52,359.896 1495.43,356.764 1492.95,356.764Z" style="fill:rgb(242,119,146);fill-rule:nonzero;"/>
        <g>
            <g>
                <path d="M1287.52,341.185L1269.99,341.185L1266.42,351.64L1258.86,351.64L1275.31,306.866L1282.38,306.866L1298.65,351.64L1291.05,351.64L1287.52,341.185ZM1272.14,334.942L1285.4,334.942L1278.91,315.815L1278.72,315.815L1272.14,334.942Z" style="fill:rgb(183,215,242);fill-rule:nonzero;"/>
                <path d="M1311.32,334.665L1311.32,351.64L1303.85,351.64L1303.85,306.866L1321.34,306.866C1326.28,306.866 1330.15,308.143 1332.95,310.695C1335.75,313.247 1337.15,316.604 1337.15,320.766C1337.15,324.969 1335.75,328.336 1332.95,330.867C1330.15,333.4 1326.28,334.665 1321.34,334.665L1311.32,334.665ZM1311.32,328.669L1321.34,328.669C1324.11,328.669 1326.19,327.931 1327.59,326.455C1328.98,324.979 1329.68,323.103 1329.68,320.827C1329.68,318.552 1328.98,316.656 1327.59,315.138C1326.19,313.621 1324.11,312.863 1321.34,312.863L1311.32,312.863L1311.32,328.669Z" style="fill:rgb(183,215,242);fill-rule:nonzero;"/>
                <path d="M1352,334.665L1352,351.64L1344.53,351.64L1344.53,306.866L1362.03,306.866C1366.97,306.866 1370.84,308.143 1373.64,310.695C1376.43,313.247 1377.83,316.604 1377.83,320.766C1377.83,324.969 1376.43,328.336 1373.64,330.867C1370.84,333.4 1366.97,334.665 1362.03,334.665L1352,334.665ZM1352,328.669L1362.03,328.669C1364.8,328.669 1366.88,327.931 1368.27,326.455C1369.66,324.979 1370.36,323.103 1370.36,320.827C1370.36,318.552 1369.66,316.656 1368.27,315.138C1366.88,313.621 1364.8,312.863 1362.03,312.863L1352,312.863L1352,328.669Z" style="fill:rgb(183,215,242);fill-rule:nonzero;"/>
                <path d="M1392.69,345.643L1413.26,345.643L1413.26,351.64L1385.21,351.64L1385.21,306.866L1392.69,306.866L1392.69,345.643Z" style="fill:rgb(183,215,242);fill-rule:nonzero;"/>
                <path d="M1425.5,328.638L1436.32,306.866L1444.66,306.866L1429.13,335.926L1429.13,351.64L1421.68,351.64L1421.68,335.526L1406.4,306.866L1414.74,306.866L1425.5,328.638Z" style="fill:rgb(183,215,242);fill-rule:nonzero;"/>
            </g>
        </g>
        <path d="M906.876,184.032C833.381,184.032 773.589,243.824 773.589,317.319C773.589,390.814 833.381,450.606 906.876,450.606C980.37,450.606 1040.16,390.814 1040.16,317.319C1040.16,243.824 980.37,184.032 906.876,184.032ZM1006.86,311.095C1006.48,299.845 1005.05,288.844 1002.64,278.293C1016.49,287.909 1024.94,299.217 1027.14,311.095L1006.86,311.095ZM861.801,311.095L819.343,311.095C819.888,296.363 822.36,282.323 826.41,269.436C838.251,263.708 851.794,259.367 866.39,256.557C863.655,273.283 862.08,291.818 861.801,311.095ZM879.366,254.496C888.281,253.375 897.494,252.797 906.876,252.797C916.258,252.797 925.471,253.375 934.385,254.496C937.439,271.574 939.202,290.876 939.503,311.095L874.249,311.095C874.549,290.876 876.312,271.574 879.366,254.496ZM861.801,323.543C862.08,342.82 863.655,361.355 866.39,378.081C851.794,375.271 838.251,370.93 826.41,365.201C822.36,352.314 819.888,338.275 819.343,323.543L861.801,323.543L861.801,323.543ZM874.249,323.543L939.503,323.543C939.202,343.762 937.439,363.064 934.385,380.142C925.471,381.263 916.258,381.841 906.876,381.841C897.494,381.841 888.281,381.263 879.366,380.142C876.312,363.064 874.549,343.762 874.249,323.543ZM951.951,323.543L994.408,323.543C993.863,338.274 991.391,352.314 987.341,365.201C975.5,370.93 961.958,375.271 947.361,378.081C950.096,361.355 951.671,342.82 951.951,323.543ZM951.951,311.095C951.671,291.818 950.096,273.283 947.361,256.557C961.958,259.367 975.5,263.708 987.341,269.437C991.391,282.324 993.863,296.363 994.408,311.095L951.951,311.095L951.951,311.095ZM944.903,243.471C943.557,237.17 942.031,231.204 940.331,225.65C937.228,215.513 933.676,207.158 929.74,200.659C951.276,208.691 969.548,227.778 981.14,253.216C969.971,248.921 957.771,245.642 944.903,243.471ZM928.429,229.294C929.627,233.207 930.732,237.343 931.747,241.666C923.629,240.798 915.312,240.349 906.876,240.349C898.44,240.349 890.123,240.798 882.004,241.666C883.019,237.343 884.125,233.207 885.323,229.294C892.737,205.074 901.567,196.48 906.876,196.48C912.184,196.48 921.014,205.074 928.429,229.294ZM884.011,200.659C880.076,207.158 876.524,215.513 873.42,225.65C871.72,231.204 870.194,237.17 868.848,243.471C855.981,245.642 843.78,248.921 832.611,253.216C844.204,227.778 862.476,208.691 884.011,200.659ZM806.89,311.095L786.611,311.095C788.806,299.217 797.262,287.909 811.11,278.293C808.703,288.844 807.275,299.845 806.89,311.095ZM806.89,323.543C807.275,334.793 808.703,345.794 811.11,356.345C797.262,346.729 788.806,335.421 786.611,323.543L806.89,323.543ZM868.848,391.167C870.194,397.468 871.72,403.433 873.42,408.988C876.523,419.125 880.076,427.48 884.011,433.979C862.475,425.947 844.204,406.859 832.611,381.421C843.78,385.716 855.981,388.996 868.848,391.167ZM885.323,405.344C884.125,401.431 883.019,397.295 882.004,392.972C890.122,393.84 898.44,394.289 906.876,394.289C915.311,394.289 923.629,393.84 931.747,392.971C930.732,397.295 929.627,401.431 928.429,405.344C921.014,429.564 912.184,438.158 906.876,438.158C901.567,438.158 892.737,429.564 885.323,405.344ZM929.74,433.979C933.676,427.48 937.228,419.125 940.331,408.988C942.031,403.433 943.557,397.468 944.903,391.167C957.771,388.996 969.971,385.716 981.141,381.421C969.548,406.859 951.276,425.947 929.74,433.979ZM1006.86,323.543L1027.14,323.543C1024.94,335.42 1016.49,346.728 1002.64,356.344C1005.05,345.794 1006.48,334.793 1006.86,323.543ZM1020.78,276.974C1014.98,271.497 1007.95,266.42 999.75,261.856C999.028,261.454 998.298,261.059 997.563,260.668C992.81,247.159 986.324,234.691 978.258,223.773C975.984,220.695 973.615,217.788 971.164,215.047C993.953,229.423 1011.62,251.197 1020.78,276.974ZM842.587,215.046C840.136,217.788 837.767,220.695 835.493,223.773C827.427,234.691 820.942,247.159 816.188,260.667C815.453,261.059 814.723,261.454 814.001,261.856C805.805,266.42 798.769,271.497 792.971,276.974C802.129,251.197 819.799,229.423 842.587,215.046ZM792.971,357.664C798.769,363.141 805.805,368.218 814.001,372.781C814.723,373.183 815.453,373.579 816.188,373.97C820.941,387.479 827.427,399.946 835.493,410.864C837.767,413.942 840.136,416.85 842.588,419.592C819.799,405.216 802.128,383.441 792.971,357.664ZM971.164,419.592C973.615,416.85 975.984,413.942 978.258,410.864C986.324,399.946 992.81,387.479 997.563,373.97C998.298,373.578 999.028,373.183 999.75,372.781C1007.95,368.218 1014.98,363.141 1020.78,357.664C1011.62,383.441 993.953,405.215 971.164,419.592Z" style="fill:rgb(154,198,228);fill-rule:nonzero;"/>
        <path d="M1845.44,801.723C1869.08,801.723 1888.24,820.88 1888.24,844.513L1888.24,910.189L1802.65,910.189L1802.65,844.513C1802.65,820.88 1821.81,801.723 1845.44,801.723Z" style="fill:rgb(108,195,148);fill-rule:nonzero;"/>
        <path d="M1845.44,801.723L1845.44,801.723C1844.45,801.723 1843.46,801.769 1842.48,801.836C1861.65,803.253 1876.77,819.246 1876.77,838.781L1876.77,910.189L1888.24,910.189L1888.24,844.513C1888.24,820.88 1869.08,801.723 1845.44,801.723Z" style="fill:rgb(82,175,123);fill-rule:nonzero;"/>
        <path d="M1878.3,955.104L1812.6,955.104L1800.89,903.994L1890,903.994L1878.3,955.104Z" style="fill:rgb(114,174,204);fill-rule:nonzero;"/>
        <path d="M1876.26,903.994L1864.55,955.104L1878.3,955.104L1890,903.994L1876.26,903.994Z" style="fill:rgb(72,150,181);fill-rule:nonzero;"/>
        <path d="M1887.4,881.942L1803.48,881.942C1794.46,881.942 1787.14,889.259 1787.14,898.286L1787.14,898.286C1787.14,907.312 1794.46,914.629 1803.48,914.629L1887.4,914.629C1896.43,914.629 1903.75,907.312 1903.75,898.286L1903.75,898.286C1903.75,889.259 1896.43,881.942 1887.4,881.942Z" style="fill:rgb(149,191,216);fill-rule:nonzero;"/>
        <path d="M1887.4,881.942L1873.66,881.942C1882.69,881.942 1890,889.259 1890,898.286L1890,898.286C1890,907.312 1882.69,914.629 1873.66,914.629L1887.4,914.629C1896.43,914.629 1903.75,907.312 1903.75,898.286L1903.75,898.286C1903.75,889.259 1896.43,881.942 1887.4,881.942Z" style="fill:rgb(114,174,204);fill-rule:nonzero;"/>
        <path d="M1821.82,829.564C1820.05,834.212 1818.61,835.649 1813.96,837.421C1818.61,839.193 1820.05,840.63 1821.82,845.277C1823.59,840.63 1825.03,839.193 1829.68,837.421C1825.03,835.649 1823.59,834.212 1821.82,829.564Z" style="fill:rgb(177,220,193);fill-rule:nonzero;"/>
        <path d="M1859.56,816.471C1857.79,821.119 1856.35,822.555 1851.71,824.327C1856.35,826.1 1857.79,827.536 1859.56,832.184C1861.33,827.536 1862.77,826.1 1867.42,824.327C1862.77,822.555 1861.33,821.119 1859.56,816.471Z" style="fill:rgb(177,220,193);fill-rule:nonzero;"/>
        <path d="M1873.21,857.247C1871.44,861.895 1870.01,863.331 1865.36,865.104C1870.01,866.876 1871.44,868.312 1873.21,872.96C1874.99,868.312 1876.42,866.876 1881.07,865.104C1876.42,863.331 1874.99,861.895 1873.21,857.247Z" style="fill:rgb(177,220,193);fill-rule:nonzero;"/>
        <path d="M1843.85,845.277C1842.08,849.924 1840.64,851.361 1835.99,853.133C1840.64,854.906 1842.08,856.342 1843.85,860.99C1845.62,856.342 1847.06,854.906 1851.71,853.133C1847.06,851.361 1845.62,849.924 1843.85,845.277Z" style="fill:rgb(177,220,193);fill-rule:nonzero;"/>
        <path d="M1819.16,862.328C1817.39,866.975 1815.95,868.412 1811.3,870.184C1815.95,871.957 1817.39,873.393 1819.16,878.041C1820.93,873.393 1822.37,871.957 1827.02,870.184C1822.37,868.412 1820.93,866.975 1819.16,862.328Z" style="fill:rgb(177,220,193);fill-rule:nonzero;"/>
        <g>
            <path d="M1559.36,954.444L1511.9,954.444L1511.9,938.384L1553.41,938.384L1532.92,807.037L1547.2,807.037L1568.53,943.734C1569.4,949.361 1565.05,954.444 1559.36,954.444Z" style="fill:rgb(199,213,222);fill-rule:nonzero;"/>
            <path d="M1553.41,938.384L1511.9,938.384L1511.9,954.444L1486.34,954.444L1463.33,807.037L1532.92,807.037L1553.41,938.384Z" style="fill:white;fill-rule:nonzero;"/>
            <path d="M1443.01,954.444L1514.99,954.444C1519.42,954.444 1523.02,950.849 1523.02,946.414C1523.02,941.979 1519.42,938.384 1514.99,938.384L1443.01,938.384C1438.58,938.384 1434.98,941.979 1434.98,946.414C1434.98,950.849 1438.58,954.444 1443.01,954.444Z" style="fill:white;fill-rule:nonzero;"/>
        </g>
        <rect x="1243.62" y="485.189" width="515.328" height="357.54" style="fill:rgb(214,223,232);"/>
        <rect x="1221.01" y="485.189" width="508.331" height="357.54" style="fill:white;"/>
        <rect x="1221.01" y="485.189" width="508.331" height="310.081" style="fill:rgb(77,54,86);"/>
        <rect x="1249.57" y="513.74" width="451.229" height="252.979" style="fill:white;"/>
        <g>
            <path d="M802.217,980.161L802.217,980.161C802.217,994.365 813.731,1005.88 827.934,1005.88L1921.13,1005.88C1935.33,1005.88 1946.85,994.365 1946.85,980.161L1946.85,980.161C1946.85,965.958 1935.33,954.444 1921.13,954.444L827.934,954.444C813.731,954.444 802.217,965.958 802.217,980.161Z" style="fill:rgb(232,165,114);fill-rule:nonzero;"/>
            <path d="M687.701,980.161L687.701,980.161C687.701,994.365 699.215,1005.88 713.419,1005.88L1780.9,1005.88C1795.1,1005.88 1806.61,994.365 1806.61,980.161L1806.61,980.161C1806.61,965.958 1795.1,954.444 1780.9,954.444L713.419,954.444C699.215,954.444 687.701,965.958 687.701,980.161Z" style="fill:rgb(252,198,135);fill-rule:nonzero;"/>
        </g>
        <g>
            <g>
                <rect x="737.868" y="1005.88" width="37.053" height="508.816" style="fill:rgb(149,191,216);"/>
                <rect x="889.722" y="1005.88" width="37.053" height="508.816" style="fill:rgb(149,191,216);"/>
                <rect x="760.728" y="1432.1" width="147.521" height="25.072" style="fill:rgb(149,191,216);"/>
            </g>
            <g>
                <rect x="1707.77" y="1005.88" width="37.053" height="508.816" style="fill:rgb(149,191,216);"/>
                <rect x="1859.63" y="1005.88" width="37.053" height="508.816" style="fill:rgb(149,191,216);"/>
                <rect x="1730.63" y="1432.1" width="147.521" height="25.072" style="fill:rgb(149,191,216);"/>
            </g>
        </g>
        <g>
            <rect x="1017.59" y="1526.21" width="181.521" height="25.357" style="fill:rgb(68,75,89);"/>
            <path d="M1017.59,1526.21L1017.59,1478.19C1017.59,1472.95 1021.84,1468.71 1027.07,1468.71L1160.83,1468.71C1181.98,1468.71 1199.11,1485.84 1199.11,1506.99L1199.11,1526.21L1017.59,1526.21Z" style="fill:rgb(68,75,89);fill-rule:nonzero;"/>
        </g>
        <path d="M1071.57,1533.51C1065.23,1533.51 1058.78,1532.34 1052.52,1529.88C1025.81,1519.35 1012.69,1489.16 1023.22,1462.45L1128.29,1195.89L1033.42,1186.32C1004.85,1183.44 984.031,1157.94 986.913,1129.38C989.797,1100.81 1015.28,1079.98 1043.86,1082.87L1207.06,1099.34C1223.26,1100.98 1237.76,1110.11 1246.23,1124.01C1254.71,1137.91 1256.18,1154.98 1250.21,1170.13L1119.95,1500.58C1111.89,1521.03 1092.3,1533.51 1071.57,1533.51Z" style="fill:rgb(68,75,89);fill-rule:nonzero;"/>
        <path d="M1150.96,965.505L1025.26,965.505C1011.15,965.505 997.716,959.45 988.373,948.877C979.029,938.304 974.673,924.229 976.409,910.226L996.661,746.889C1000.01,719.912 1024.58,700.754 1051.57,704.097C1078.54,707.443 1097.7,732.024 1094.36,759.002L1080.96,867.06L1150.96,867.06C1178.14,867.06 1200.18,889.098 1200.18,916.283C1200.18,943.467 1178.14,965.505 1150.96,965.505Z" style="fill:rgb(68,75,89);fill-rule:nonzero;"/>
        <path d="M1278.59,1523.55C1275.45,1523.55 1272.27,1523.27 1269.08,1522.68C1240.84,1517.45 1222.19,1490.33 1227.41,1462.1L1275.34,1203.05L1024.44,1203.05C995.728,1203.05 972.453,1179.78 972.453,1151.07C972.453,1122.35 995.728,1099.08 1024.44,1099.08L1337.82,1099.08C1353.27,1099.08 1367.91,1105.94 1377.79,1117.82C1387.66,1129.69 1391.75,1145.34 1388.94,1160.52L1329.65,1481.01C1325.02,1506.05 1303.17,1523.55 1278.59,1523.55Z" style="fill:rgb(91,100,117);fill-rule:nonzero;"/>
        <path d="M1465.19,954.444L1368.4,954.444C1361.23,954.444 1355.41,948.625 1355.41,941.447L1355.41,941.447C1355.41,921.746 1371.38,905.775 1391.08,905.775L1442.52,905.775C1462.22,905.775 1478.19,921.746 1478.19,941.447L1478.19,941.447C1478.19,948.625 1472.37,954.444 1465.19,954.444Z" style="fill:white;fill-rule:nonzero;"/>
        <path d="M1475.45,927.735C1470.08,914.841 1457.36,905.775 1442.52,905.775L1391.08,905.775C1371.38,905.775 1355.41,921.746 1355.41,941.447C1355.41,948.625 1361.23,954.444 1368.4,954.444L1404.07,954.444C1421.02,935.216 1455.74,926.093 1475.45,927.735Z" style="fill:rgb(199,213,222);fill-rule:nonzero;"/>
        <path d="M1375.32,950.02L1269.68,950.02C1251.05,950.02 1235.95,934.915 1235.95,916.283C1235.95,897.651 1251.05,882.546 1269.68,882.546L1375.32,882.546C1393.95,882.546 1409.05,897.651 1409.05,916.283C1409.05,934.915 1393.95,950.02 1375.32,950.02Z" style="fill:rgb(242,154,127);fill-rule:nonzero;"/>
        <g transform="matrix(0.89241,-0.45123,0.45123,0.89241,-258.596,727.017)">
            <ellipse cx="1395.23" cy="905.775" rx="60.837" ry="40.65" style="fill:rgb(242,154,127);"/>
        </g>
        <g>
            <path d="M1117.5,469.053C1113.02,458.43 1112.54,447.127 1115.37,436.807C1115.65,437.584 1115.95,438.358 1116.28,439.129C1126.89,464.311 1155.92,476.118 1181.1,465.5C1195.66,459.362 1205.73,447.068 1209.6,432.926C1218.57,457.545 1206.73,485.132 1182.32,495.425C1157.14,506.042 1128.11,494.235 1117.5,469.053Z" style="fill:rgb(77,54,86);fill-rule:nonzero;"/>
            <path d="M951.232,708.746L1079.59,708.746C1119.01,708.746 1150.96,676.794 1150.96,637.378L1150.96,464.248L951.232,464.248L951.232,708.746Z" style="fill:rgb(242,154,127);fill-rule:nonzero;"/>
            <circle cx="1126.75" cy="434.003" r="66.616" style="fill:rgb(77,54,86);"/>
            <circle cx="1029.95" cy="436.51" r="55.822" style="fill:rgb(77,54,86);"/>
            <path d="M973.474,700.315L1003.25,700.315C1026.59,700.315 1045.51,681.393 1045.51,658.051L1045.51,418.528L976.93,418.528C938.24,418.528 906.875,449.893 906.875,488.583L906.875,633.716C906.875,670.498 936.693,700.315 973.474,700.315Z" style="fill:rgb(77,54,86);fill-rule:nonzero;"/>
            <circle cx="1078.23" cy="510.06" r="59.454" style="fill:rgb(77,54,86);"/>
            <circle cx="1052.7" cy="593.48" r="36.318" style="fill:rgb(242,154,127);"/>
            <path d="M1086.62,603.988C1077.97,603.988 1070.95,596.972 1070.95,588.318L1070.95,535.04L1102.29,535.04L1102.29,588.318C1102.29,596.972 1095.27,603.988 1086.62,603.988Z" style="fill:rgb(77,54,86);fill-rule:nonzero;"/>
            <path d="M1097.69,464.308C1084.64,470.274 1074.69,480.235 1068.59,492.072C1069.5,491.598 1070.43,491.142 1071.38,490.71C1102.31,476.567 1138.86,490.182 1153,521.118C1161.17,539.003 1160.06,558.755 1151.7,574.976C1180.65,559.963 1193.02,524.706 1179.31,494.716C1165.17,463.78 1128.63,450.165 1097.69,464.308Z" style="fill:rgb(77,54,86);fill-rule:nonzero;"/>
        </g>
        <path d="M992.784,1199.39C956.39,1199.39 921.442,1179.01 904.558,1144.04C872.954,1078.58 859.384,1002.79 864.226,918.787C868.625,842.457 887.49,775.229 902.54,732.272C920.416,681.249 976.271,654.38 1027.29,672.255C1078.32,690.132 1105.19,745.986 1087.31,797.009C1074.2,834.426 1034.99,963.895 1080.87,1058.91C1104.37,1107.6 1083.96,1166.12 1035.28,1189.63C1021.56,1196.25 1007.06,1199.39 992.784,1199.39Z" style="fill:rgb(108,118,135);fill-rule:nonzero;"/>
        <path d="M1319.46,956.656L1221.01,956.656C1198.72,956.656 1180.64,938.58 1180.64,916.283C1180.64,893.985 1198.72,875.909 1221.01,875.909L1319.46,875.909C1341.76,875.909 1359.83,893.985 1359.83,916.283C1359.83,938.58 1341.76,956.656 1319.46,956.656Z" style="fill:white;fill-rule:nonzero;"/>
        <path d="M1266.37,965.505L1142.48,965.505C1125.11,965.505 1109.02,956.349 1100.15,941.41L1003.18,778.074C989.306,754.698 997.005,724.498 1020.38,710.62C1043.76,696.743 1073.96,704.442 1087.83,727.818L1170.5,867.06L1266.37,867.06C1293.55,867.06 1315.59,889.098 1315.59,916.283C1315.59,943.468 1293.55,965.505 1266.37,965.505Z" style="fill:rgb(91,100,117);fill-rule:nonzero;"/>
        <path d="M1463.82,929.56C1458.89,929.56 1454.16,926.808 1451.87,922.082C1447.96,914.037 1440.74,907.204 1414.61,911.669C1407.39,912.898 1400.52,908.045 1399.29,900.819C1398.06,893.593 1402.91,886.735 1410.14,885.501C1422.35,883.415 1459.52,877.071 1475.75,910.483C1478.95,917.078 1476.2,925.02 1469.61,928.222C1467.74,929.13 1465.76,929.56 1463.82,929.56Z" style="fill:rgb(242,154,127);fill-rule:nonzero;"/>
        <path d="M1402.96,905.777C1400.58,905.777 1398.17,905.137 1396,903.798C1389.76,899.948 1387.83,891.77 1391.67,885.531C1401.87,869.015 1413.51,859.444 1427.27,856.272C1442.75,852.707 1460.46,857.429 1481.42,870.714C1487.61,874.639 1489.45,882.839 1485.53,889.031C1481.61,895.222 1473.4,897.062 1467.21,893.137C1452.75,883.976 1441.33,880.274 1433.24,882.141C1429.09,883.095 1422.62,885.93 1414.27,899.471C1411.76,903.538 1407.41,905.777 1402.96,905.777Z" style="fill:rgb(242,154,127);fill-rule:nonzero;"/>
        <path d="M1383.63,898.423C1382.98,898.423 1382.33,898.378 1381.67,898.284C1374.11,897.21 1368.85,890.211 1369.92,882.65C1373.28,859.063 1397.09,823.701 1431.38,821.465C1438.99,820.973 1445.58,826.742 1446.08,834.362C1446.58,841.983 1440.8,848.563 1433.18,849.06C1415.29,850.226 1399.33,872.257 1397.3,886.539C1396.32,893.44 1390.4,898.423 1383.63,898.423Z" style="fill:rgb(242,154,127);fill-rule:nonzero;"/>
        <g>
            <rect x="1222.57" y="1526.21" width="181.521" height="25.357" style="fill:rgb(77,54,86);"/>
            <path d="M1222.57,1526.21L1222.57,1478.19C1222.57,1472.95 1226.81,1468.71 1232.05,1468.71L1365.81,1468.71C1386.95,1468.71 1404.09,1485.84 1404.09,1506.99L1404.09,1526.21L1222.57,1526.21Z" style="fill:rgb(109,94,118);fill-rule:nonzero;"/>
        </g>
        <path d="M1409.31,585.856L1409.31,651.511C1409.31,659.242 1415.57,665.509 1423.3,665.509L1527.06,665.509C1534.79,665.509 1541.05,659.242 1541.05,651.511L1541.05,585.856C1541.05,578.125 1534.79,571.858 1527.06,571.858L1423.3,571.858C1415.57,571.858 1409.31,578.125 1409.31,585.856Z" style="fill:rgb(109,94,118);fill-rule:nonzero;"/>
        <path d="M1404.12,567.518L1404.12,595.34C1404.12,600.228 1407.31,604.544 1411.99,605.975L1472.6,624.53C1474.28,625.045 1476.08,625.045 1477.76,624.53L1538.37,605.975C1543.05,604.544 1546.24,600.228 1546.24,595.34L1546.24,567.518C1546.24,563.398 1542.9,560.059 1538.78,560.059L1411.58,560.059C1407.46,560.059 1404.12,563.398 1404.12,567.518Z" style="fill:rgb(77,54,86);fill-rule:nonzero;"/>
        <rect x="1463.59" y="604.949" width="23.178" height="8.48" style="fill:rgb(251,222,142);"/>
        <path d="M1490.11,553.607L1460.25,553.607C1457.65,553.607 1455.55,551.502 1455.55,548.906C1455.55,546.309 1457.65,544.205 1460.25,544.205L1490.11,544.205C1492.71,544.205 1494.81,546.309 1494.81,548.906C1494.81,551.502 1492.71,553.607 1490.11,553.607Z" style="fill:rgb(77,54,86);fill-rule:nonzero;"/>
        <g transform="matrix(0.70711,-0.70711,0.70711,0.70711,14.0215,1267.36)">
            <circle cx="1536.86" cy="616.757" r="41.057" style="fill:white;fill-opacity:0.44;"/>
        </g>
        <g transform="matrix(0.70711,-0.70711,0.70711,0.70711,-1.76609,1305.48)">
            <rect x="1565.37" y="641.17" width="19.198" height="27.404" style="fill:rgb(109,94,118);"/>
        </g>
        <path d="M1608.83,709.251L1571.29,671.708C1566.98,667.397 1566.98,660.408 1571.29,656.097L1576.19,651.187C1580.51,646.876 1587.5,646.876 1591.81,651.187L1629.35,688.73C1633.66,693.041 1633.66,700.03 1629.35,704.341L1624.44,709.251C1620.13,713.562 1613.14,713.562 1608.83,709.251Z" style="fill:rgb(77,54,86);fill-rule:nonzero;"/>
        <path d="M1536.86,662.791C1524.56,662.791 1513,658.003 1504.3,649.308C1486.36,631.359 1486.36,602.154 1504.3,584.205C1522.25,566.256 1551.46,566.257 1569.41,584.205C1578.1,592.9 1582.89,604.46 1582.89,616.757C1582.89,629.053 1578.1,640.613 1569.41,649.308C1560.71,658.003 1549.15,662.791 1536.86,662.791ZM1511.34,642.269C1518.16,649.084 1527.22,652.836 1536.86,652.836C1546.49,652.836 1555.55,649.084 1562.37,642.269C1569.18,635.454 1572.93,626.394 1572.93,616.757C1572.93,607.12 1569.18,598.059 1562.37,591.245C1548.3,577.177 1525.41,577.179 1511.34,591.245C1497.28,605.312 1497.28,628.201 1511.34,642.269Z" style="fill:rgb(149,191,216);fill-rule:nonzero;"/>
        <path d="M1511.41,728.787L1438.95,728.787C1430.71,728.787 1424.03,722.105 1424.03,713.863L1424.03,713.863C1424.03,705.62 1430.71,698.938 1438.95,698.938L1511.41,698.938C1519.65,698.938 1526.33,705.62 1526.33,713.863L1526.33,713.863C1526.33,722.105 1519.65,728.787 1511.41,728.787Z" style="fill:rgb(242,119,146);fill-rule:nonzero;"/>
        <g>
            <path d="M1051.22,1256.97L882.13,1256.97C865.941,1256.97 852.818,1243.85 852.818,1227.66L852.818,1227.66C852.818,1211.47 865.941,1198.34 882.13,1198.34L1051.22,1198.34C1067.41,1198.34 1080.54,1211.47 1080.54,1227.66L1080.54,1227.66C1080.54,1243.85 1067.41,1256.97 1051.22,1256.97Z" style="fill:rgb(242,119,146);fill-rule:nonzero;"/>
            <path d="M1212.74,1256.97L1062.5,1256.97C1046.32,1256.97 1033.19,1243.85 1033.19,1227.66L1033.19,1227.66C1033.19,1211.47 1046.32,1198.34 1062.5,1198.34L1212.74,1198.34C1228.93,1198.34 1242.06,1211.47 1242.06,1227.66L1242.06,1227.66C1242.06,1243.85 1228.93,1256.97 1212.74,1256.97Z" style="fill:rgb(215,76,107);fill-rule:nonzero;"/>
        </g>
        <g>
            <g>
                <circle cx="1106.74" cy="1533.13" r="18.435" style="fill:rgb(77,54,86);"/>
                <circle cx="988.136" cy="1533.13" r="18.435" style="fill:rgb(77,54,86);"/>
            </g>
            <rect x="1029.19" y="1285.73" width="36.502" height="228.967" style="fill:rgb(109,94,118);"/>
            <rect x="1023.29" y="1285.73" width="48.301" height="54.2" style="fill:rgb(77,54,86);"/>
            <path d="M985.43,1256.97L985.43,1268.67C985.43,1286.03 999.506,1300.11 1016.87,1300.11L1085.38,1300.11C1102.74,1300.11 1116.82,1286.03 1116.82,1268.67L1116.82,1256.97L985.43,1256.97Z" style="fill:rgb(77,54,86);fill-rule:nonzero;"/>
            <path d="M959.561,1513.96L959.561,1527.97L1135.31,1527.97L1135.31,1513.96C1135.31,1502.76 1126.23,1493.68 1115.03,1493.68L979.841,1493.68C968.641,1493.68 959.561,1502.76 959.561,1513.96Z" style="fill:rgb(77,54,86);fill-rule:nonzero;"/>
        </g>
        <g>
            <path d="M975.485,831.916L858.86,831.916C841.691,831.916 827.773,845.834 827.773,863.003L827.773,1078.33C827.773,1095.5 841.691,1109.42 858.86,1109.42L975.485,1109.42C992.654,1109.42 1006.57,1095.5 1006.57,1078.33L1006.57,863.003C1006.57,845.834 992.654,831.916 975.485,831.916Z" style="fill:rgb(215,76,107);fill-rule:nonzero;"/>
            <path d="M940.526,831.916L823.901,831.916C806.732,831.916 792.814,845.834 792.814,863.003L792.814,1078.33C792.814,1095.5 806.732,1109.42 823.901,1109.42L940.526,1109.42C957.695,1109.42 971.613,1095.5 971.613,1078.33L971.613,863.003C971.613,845.834 957.695,831.916 940.526,831.916Z" style="fill:rgb(242,119,146);fill-rule:nonzero;"/>
        </g>
        <path d="M1033.85,1297.34L941.738,1297.34C896.903,1297.34 860.426,1260.87 860.426,1216.03L860.426,929.003C860.426,918.007 869.34,909.093 880.336,909.093C891.332,909.093 900.246,918.007 900.246,929.003L900.246,1216.03C900.246,1238.91 918.86,1257.52 941.738,1257.52L1033.85,1257.52C1044.84,1257.52 1053.76,1266.43 1053.76,1277.43C1053.76,1288.43 1044.84,1297.34 1033.85,1297.34Z" style="fill:rgb(77,54,86);fill-rule:nonzero;"/>
        <path d="M2059.35,434.795L2059.35,499.946C2059.35,520.564 2042.64,537.277 2022.02,537.277L1579.75,537.277C1559.13,537.277 1542.42,520.564 1542.42,499.946L1542.42,434.795C1542.42,414.177 1559.13,397.464 1579.75,397.464L2022.02,397.464C2042.64,397.464 2059.35,414.177 2059.35,434.795Z" style="fill:white;fill-rule:nonzero;"/>
        <path d="M1687.41,397.464L1687.41,537.277L1579.75,537.277C1559.13,537.277 1542.42,520.564 1542.42,499.946L1542.42,434.795C1542.42,414.177 1559.13,397.464 1579.75,397.464L1687.41,397.464L1687.41,397.464Z" style="fill:rgb(149,191,216);fill-rule:nonzero;"/>
        <path d="M1659.18,498.2L1634.61,473.635C1632.84,471.863 1630.38,471.206 1628.09,471.659L1623.93,467.495C1631.5,455.826 1630.18,440.028 1619.96,429.806C1608.21,418.062 1589.1,418.062 1577.36,429.806C1571.67,435.495 1568.53,443.06 1568.53,451.106C1568.53,459.152 1571.67,466.716 1577.36,472.405C1583.05,478.094 1590.61,481.228 1598.66,481.228C1604.57,481.228 1610.21,479.532 1615.05,476.381L1619.21,480.542C1618.76,482.828 1619.41,485.29 1621.18,487.062L1645.75,511.628C1648.57,514.448 1653.14,514.448 1655.97,511.628L1659.18,508.415C1662,505.594 1662,501.021 1659.18,498.2ZM1581.96,467.799C1577.5,463.34 1575.05,457.411 1575.05,451.106C1575.05,444.8 1577.5,438.871 1581.96,434.412C1586.57,429.809 1592.61,427.509 1598.66,427.509C1604.7,427.509 1610.75,429.811 1615.35,434.412C1624.55,443.617 1624.55,458.594 1615.35,467.799C1610.89,472.258 1604.96,474.714 1598.66,474.714C1592.35,474.714 1586.42,472.258 1581.96,467.799Z" style="fill:white;fill-rule:nonzero;"/>
        <g>
            <path d="M1736.84,441.439L1742.82,441.439L1742.82,473.368C1742.82,477.31 1741.57,480.438 1739.07,482.752C1736.58,485.067 1733.34,486.224 1729.35,486.224C1725.11,486.224 1721.73,485.143 1719.23,482.98C1716.72,480.817 1715.52,477.684 1715.62,473.58L1715.68,473.398L1721.41,473.398C1721.41,476.127 1722.1,478.164 1723.49,479.508C1724.87,480.852 1726.83,481.525 1729.35,481.525C1731.56,481.525 1733.36,480.783 1734.75,479.297C1736.14,477.813 1736.84,475.828 1736.84,473.344L1736.84,441.439Z" style="fill:rgb(109,94,118);fill-rule:nonzero;"/>
            <path d="M1750.82,468.88C1750.82,464.029 1752.14,460.031 1754.76,456.888C1757.39,453.745 1760.96,452.173 1765.47,452.173C1770.02,452.173 1773.61,453.74 1776.25,456.872C1778.88,460.006 1780.2,464.009 1780.2,468.88L1780.2,469.547C1780.2,474.44 1778.89,478.442 1776.26,481.555C1773.63,484.668 1770.06,486.224 1765.53,486.224C1761,486.224 1757.42,484.663 1754.78,481.54C1752.14,478.416 1750.82,474.419 1750.82,469.547L1750.82,468.88ZM1756.8,469.531C1756.8,473.004 1757.53,475.872 1758.99,478.133C1760.46,480.394 1762.64,481.525 1765.53,481.525C1768.38,481.525 1770.54,480.394 1772.02,478.133C1773.49,475.872 1774.23,473.004 1774.23,469.531L1774.23,468.866C1774.23,465.433 1773.49,462.576 1772,460.295C1770.52,458.014 1768.34,456.872 1765.47,456.872C1762.62,456.872 1760.46,458.014 1758.99,460.295C1757.53,462.576 1756.8,465.433 1756.8,468.866L1756.8,469.531L1756.8,469.531Z" style="fill:rgb(109,94,118);fill-rule:nonzero;"/>
            <path d="M1815.53,470.427C1815.53,475.157 1814.39,478.973 1812.12,481.873C1809.84,484.774 1806.71,486.224 1802.73,486.224C1800.57,486.224 1798.69,485.805 1797.09,484.966C1795.5,484.127 1794.17,482.889 1793.12,481.252L1792.39,485.588L1787.51,485.588L1787.51,438.285L1793.48,438.285L1793.48,456.66C1794.52,455.205 1795.79,454.094 1797.32,453.325C1798.85,452.557 1800.63,452.173 1802.67,452.173C1806.71,452.173 1809.87,453.79 1812.13,457.024C1814.4,460.259 1815.53,464.514 1815.53,469.79L1815.53,470.427L1815.53,470.427ZM1809.56,469.79C1809.56,466.03 1808.86,462.963 1807.48,460.587C1806.09,458.212 1803.99,457.024 1801.16,457.024C1799.32,457.024 1797.76,457.474 1796.5,458.374C1795.24,459.273 1794.23,460.481 1793.48,461.997L1793.48,476.218C1794.25,477.836 1795.26,479.099 1796.5,480.009C1797.74,480.918 1799.32,481.373 1801.22,481.373C1804.03,481.373 1806.12,480.372 1807.49,478.371C1808.87,476.37 1809.56,473.722 1809.56,470.427L1809.56,469.79Z" style="fill:rgb(109,94,118);fill-rule:nonzero;"/>
            <path d="M1863.41,474.47C1863.41,472.461 1862.65,470.778 1861.13,469.421C1859.62,468.065 1856.93,466.924 1853.07,466C1848.4,464.885 1844.75,463.244 1842.14,461.076C1839.52,458.908 1838.21,456.182 1838.21,452.899C1838.21,449.455 1839.62,446.578 1842.44,444.267C1845.26,441.957 1848.91,440.802 1853.4,440.802C1858.23,440.802 1862.08,442.126 1864.94,444.774C1867.8,447.423 1869.18,450.495 1869.08,453.992L1869.02,454.174L1863.32,454.174C1863.32,451.586 1862.46,449.495 1860.75,447.898C1859.05,446.301 1856.59,445.502 1853.4,445.502C1850.43,445.502 1848.15,446.174 1846.56,447.519C1844.98,448.863 1844.18,450.616 1844.18,452.779C1844.18,454.7 1845.04,456.302 1846.76,457.585C1848.48,458.869 1851.27,459.996 1855.13,460.966C1859.78,462.118 1863.32,463.816 1865.74,466.06C1868.17,468.304 1869.38,471.084 1869.38,474.399C1869.38,477.957 1867.92,480.817 1865.01,482.98C1862.1,485.143 1858.3,486.224 1853.61,486.224C1849.21,486.224 1845.31,485.026 1841.92,482.631C1838.54,480.236 1836.89,477.037 1837,473.034L1837.06,472.853L1842.76,472.853C1842.76,475.683 1843.8,477.836 1845.88,479.311C1847.96,480.787 1850.54,481.525 1853.61,481.525C1856.62,481.525 1859.01,480.891 1860.77,479.625C1862.53,478.36 1863.41,476.641 1863.41,474.47Z" style="fill:rgb(109,94,118);fill-rule:nonzero;"/>
            <path d="M1890.58,486.224C1886.01,486.224 1882.37,484.703 1879.67,481.661C1876.98,478.619 1875.63,474.672 1875.63,469.82L1875.63,468.486C1875.63,463.816 1877.02,459.93 1879.8,456.827C1882.57,453.725 1885.87,452.173 1889.66,452.173C1894.09,452.173 1897.44,453.507 1899.7,456.175C1901.97,458.844 1903.1,462.402 1903.1,466.848L1903.1,470.578L1881.81,470.578L1881.72,470.729C1881.78,473.874 1882.58,476.46 1884.12,478.486C1885.65,480.512 1887.81,481.525 1890.58,481.525C1892.6,481.525 1894.37,481.236 1895.9,480.66C1897.42,480.084 1898.74,479.291 1899.85,478.28L1902.19,482.165C1901.02,483.325 1899.47,484.291 1897.55,485.065C1895.63,485.838 1893.3,486.224 1890.58,486.224ZM1889.66,456.872C1887.66,456.872 1885.95,457.714 1884.54,459.396C1883.12,461.078 1882.26,463.189 1881.93,465.727L1881.99,465.878L1897.12,465.878L1897.12,465.093C1897.12,462.756 1896.5,460.801 1895.25,459.23C1893.99,457.659 1892.13,456.872 1889.66,456.872Z" style="fill:rgb(109,94,118);fill-rule:nonzero;"/>
            <path d="M1929.96,485.588C1929.76,484.597 1929.6,483.723 1929.49,482.965C1929.38,482.206 1929.32,481.444 1929.3,480.675C1928.18,482.252 1926.73,483.571 1924.94,484.632C1923.16,485.694 1921.23,486.224 1919.17,486.224C1915.75,486.224 1913.15,485.35 1911.36,483.602C1909.57,481.853 1908.68,479.442 1908.68,476.37C1908.68,473.236 1909.95,470.786 1912.48,469.017C1915.02,467.248 1918.46,466.363 1922.81,466.363L1929.3,466.363L1929.3,463.119C1929.3,461.199 1928.71,459.678 1927.54,458.555C1926.36,457.434 1924.71,456.872 1922.57,456.872C1920.64,456.872 1919.08,457.363 1917.88,458.343C1916.68,459.324 1916.08,460.501 1916.08,461.876L1910.38,461.876L1910.32,461.694C1910.19,459.309 1911.32,457.126 1913.7,455.144C1916.07,453.163 1919.14,452.173 1922.9,452.173C1926.62,452.173 1929.61,453.118 1931.87,455.008C1934.14,456.898 1935.27,459.622 1935.27,463.18L1935.27,478.978C1935.27,480.15 1935.33,481.282 1935.45,482.373C1935.57,483.465 1935.8,484.537 1936.12,485.588L1929.96,485.588ZM1920.05,481.191C1922.21,481.191 1924.16,480.637 1925.9,479.528C1927.64,478.419 1928.77,477.15 1929.3,475.718L1929.3,470.396L1922.6,470.396C1920.19,470.396 1918.26,471.001 1916.82,472.21C1915.37,473.42 1914.65,474.841 1914.65,476.474C1914.65,477.926 1915.11,479.075 1916.02,479.921C1916.92,480.768 1918.27,481.191 1920.05,481.191Z" style="fill:rgb(109,94,118);fill-rule:nonzero;"/>
            <path d="M1959.47,458.055L1956.4,457.873C1954.83,457.873 1953.5,458.248 1952.42,458.995C1951.34,459.743 1950.5,460.795 1949.92,462.149L1949.92,485.588L1943.94,485.588L1943.94,452.779L1949.28,452.779L1949.86,457.57C1950.79,455.872 1951.93,454.548 1953.3,453.598C1954.66,452.648 1956.23,452.173 1958.01,452.173C1958.46,452.173 1958.88,452.208 1959.29,452.279C1959.69,452.35 1960.02,452.426 1960.29,452.507L1959.47,458.055Z" style="fill:rgb(109,94,118);fill-rule:nonzero;"/>
            <path d="M1977.99,481.525C1979.97,481.525 1981.72,480.913 1983.22,479.69C1984.73,478.467 1985.48,476.966 1985.48,475.187L1990.85,475.187L1990.91,475.369C1991.01,478.199 1989.75,480.716 1987.14,482.919C1984.52,485.123 1981.47,486.224 1977.99,486.224C1973.22,486.224 1969.57,484.668 1967.05,481.555C1964.52,478.442 1963.26,474.531 1963.26,469.82L1963.26,468.547C1963.26,463.877 1964.53,459.981 1967.06,456.858C1969.6,453.734 1973.24,452.173 1977.99,452.173C1981.83,452.173 1984.97,453.305 1987.41,455.569C1989.85,457.833 1991.02,460.613 1990.94,463.907L1990.88,464.089L1985.48,464.089C1985.48,462.088 1984.78,460.385 1983.36,458.98C1981.95,457.575 1980.16,456.872 1977.99,456.872C1974.86,456.872 1972.62,457.998 1971.28,460.25C1969.93,462.501 1969.26,465.262 1969.26,468.532L1969.26,469.804C1969.26,473.155 1969.93,475.947 1971.26,478.178C1972.6,480.409 1974.84,481.525 1977.99,481.525Z" style="fill:rgb(109,94,118);fill-rule:nonzero;"/>
            <path d="M2003.59,457.176C2004.72,455.599 2006.11,454.371 2007.75,453.492C2009.4,452.613 2011.23,452.173 2013.23,452.173C2016.73,452.173 2019.45,453.224 2021.4,455.326C2023.35,457.429 2024.33,460.663 2024.33,465.029L2024.33,485.588L2018.35,485.588L2018.35,464.969C2018.35,462.26 2017.77,460.259 2016.61,458.965C2015.45,457.672 2013.71,457.024 2011.41,457.024C2009.75,457.024 2008.25,457.414 2006.91,458.192C2005.56,458.97 2004.45,460.026 2003.59,461.36L2003.59,485.588L1997.61,485.588L1997.61,438.285L2003.59,438.285L2003.59,457.176Z" style="fill:rgb(109,94,118);fill-rule:nonzero;"/>
        </g>
        <path d="M1975.41,656.388L1731.23,656.388C1723.14,656.388 1715.69,659.122 1709.74,663.708L1672.67,647.822C1665.33,644.678 1658.34,652.907 1662.63,659.637L1695.98,711.952L1695.98,731.464C1695.98,750.935 1711.76,766.719 1731.23,766.719L1975.41,766.719C1994.88,766.719 2010.67,750.935 2010.67,731.464L2010.67,691.643C2010.67,672.172 1994.88,656.388 1975.41,656.388Z" style="fill:rgb(199,234,250);fill-rule:nonzero;"/>
        <g>
            <rect x="1747.73" y="680.946" width="115.303" height="16.456" style="fill:white;"/>
            <rect x="1747.73" y="716.449" width="207.951" height="16.456" style="fill:white;"/>
        </g>
        <g>
            <path d="M1598.67,1320.02L1586.53,1320.02L1586.53,1291.31C1586.53,1287.95 1589.24,1285.24 1592.6,1285.24C1595.95,1285.24 1598.67,1287.95 1598.67,1291.31L1598.67,1320.02Z" style="fill:rgb(77,54,86);fill-rule:nonzero;"/>
            <g>
                <path d="M1593.11,1280.59L1508.89,1280.59L1508.89,1298.48L1593.11,1298.48C1598.05,1298.48 1602.06,1294.47 1602.06,1289.53C1602.06,1284.59 1598.05,1280.59 1593.11,1280.59Z" style="fill:rgb(93,78,104);fill-rule:nonzero;"/>
                <path d="M1510.95,1280.59L1504.07,1280.59C1499.13,1280.59 1495.13,1284.59 1495.13,1289.53C1495.13,1294.47 1499.13,1298.48 1504.07,1298.48L1510.95,1298.48C1515.89,1298.48 1519.9,1294.47 1519.9,1289.53C1519.9,1284.59 1515.89,1280.59 1510.95,1280.59Z" style="fill:rgb(109,94,118);fill-rule:nonzero;"/>
            </g>
            <path d="M1513.28,1320.02L1501.13,1320.02L1501.13,1291.31C1501.13,1287.95 1503.85,1285.24 1507.2,1285.24C1510.56,1285.24 1513.28,1287.95 1513.28,1291.31L1513.28,1320.02Z" style="fill:rgb(93,78,104);fill-rule:nonzero;"/>
        </g>
        <g>
            <path d="M1667.13,1342.14L1667.13,1529.44C1667.13,1541.66 1657.22,1551.56 1645.01,1551.56L1462.32,1551.56L1462.32,1320.02L1645.01,1320.02C1657.22,1320.02 1667.13,1329.92 1667.13,1342.14Z" style="fill:rgb(77,54,86);fill-rule:nonzero;"/>
            <path d="M1450.53,1320.02L1473,1320.02C1485.22,1320.02 1495.13,1329.92 1495.13,1342.14L1495.13,1529.44C1495.13,1541.66 1485.22,1551.57 1473,1551.57L1450.53,1551.57C1438.32,1551.57 1428.41,1541.66 1428.41,1529.44L1428.41,1342.14C1428.41,1329.92 1438.32,1320.02 1450.53,1320.02Z" style="fill:rgb(109,94,118);fill-rule:nonzero;"/>
            <path d="M1674.87,1342.14L1674.87,1420.58C1674.87,1426.94 1669.71,1432.1 1663.35,1432.1L1506.65,1432.1C1500.28,1432.1 1495.13,1426.94 1495.13,1420.58L1495.13,1342.14C1495.13,1329.92 1485.23,1320.02 1473,1320.02L1652.75,1320.02C1664.96,1320.02 1674.87,1329.92 1674.87,1342.14Z" style="fill:rgb(93,78,104);fill-rule:nonzero;"/>
            <rect x="1565.09" y="1412.38" width="38.714" height="12.167" style="fill:rgb(251,222,142);"/>
        </g>
    </g>
</svg>
